<svg xmlns="http://www.w3.org/2000/svg" xmlns:xlink="http://www.w3.org/1999/xlink" width="228" height="50" viewBox="0 0 228 50">
    <defs>
        <path id="prefix__a" d="M13.8 30.6L41.388 30.6 41.388 49.664 13.8 49.664z"/>
    </defs>
    <g fill="none" fill-rule="evenodd">
        <g fill="#343534">
            <path d="M6.314 6.803c.098.214.195.432.287.657.09-.227.188-.453.29-.67.101-.217.206-.426.313-.632L10.22.39c.053-.1.109-.177.165-.23.057-.056.12-.096.19-.122.07-.028.148-.038.237-.038H13.2v11.4h-2.402V4.837c0-.317.017-.662.048-1.034L7.737 9.669c-.098.182-.226.32-.392.415-.164.095-.35.14-.56.14h-.37c-.21 0-.397-.045-.56-.14-.164-.095-.295-.233-.39-.415L2.335 3.795c.022.184.039.364.05.545.01.18.016.346.016.497V11.4H0V0h2.39c.088 0 .168.01.237.038.07.026.134.066.19.121.056.054.111.131.165.23l3.022 5.793c.107.2.21.406.31.621M23.659 5.996c0-.582-.074-1.103-.223-1.568-.148-.466-.36-.859-.638-1.18-.277-.324-.617-.57-1.02-.742-.4-.173-.858-.26-1.37-.26-.518 0-.98.087-1.384.26-.403.173-.744.418-1.022.742-.276.321-.49.714-.637 1.18-.15.465-.223.986-.223 1.568 0 .584.074 1.11.223 1.575.147.466.36.858.637 1.18.278.324.619.569 1.022.738.405.17.866.255 1.385.255.511 0 .97-.085 1.37-.255.402-.17.742-.414 1.02-.738.277-.322.49-.714.637-1.18.149-.465.223-.99.223-1.575zm2.741 0c0 .847-.144 1.64-.43 2.37-.29.73-.695 1.366-1.218 1.906-.524.538-1.153.962-1.89 1.268-.738.307-1.557.46-2.453.46-.9 0-1.718-.153-2.458-.46-.74-.306-1.373-.73-1.898-1.268-.526-.54-.932-1.176-1.222-1.906-.288-.73-.431-1.523-.431-2.37 0-.85.143-1.64.43-2.37.291-.73.697-1.364 1.223-1.902.525-.536 1.158-.96 1.898-1.266C18.69.154 19.51 0 20.409 0c.896 0 1.715.154 2.453.461.737.312 1.366.733 1.89 1.272.523.535.928 1.17 1.217 1.901.287.73.431 1.518.431 2.362zM35.574 5.696c0-.565-.077-1.071-.229-1.526-.153-.454-.372-.84-.659-1.154-.285-.315-.635-.56-1.05-.73-.412-.166-.885-.252-1.412-.252h-1.845v7.33h1.845c.527 0 1-.084 1.412-.255.415-.168.765-.41 1.05-.727.287-.315.506-.7.66-1.153.151-.454.228-.966.228-1.533zm2.826 0c0 .822-.149 1.583-.445 2.28-.297.696-.716 1.3-1.254 1.806-.54.51-1.188.908-1.95 1.19-.76.286-1.602.428-2.527.428H27.6V0h4.624c.925 0 1.768.142 2.527.431.762.285 1.41.683 1.95 1.188.538.505.957 1.107 1.254 1.803.296.697.445 1.454.445 2.274zM46.8 0L46.8 2.034 42.211 2.034 42.211 4.695 45.726 4.695 45.726 6.65 42.211 6.65 42.211 9.364 46.8 9.364 46.8 11.4 39.6 11.4 39.6 0 46.8 0M51.371 9.288L55.8 9.288 55.8 11.4 48.6 11.4 48.6 0 51.371 0 51.371 9.288M59.172 9.288L63.6 9.288 63.6 11.4 56.4 11.4 56.4 0 59.172 0 59.172 9.288M65.4 11.4L68.4 11.4 68.4 0 65.4 0zM71.924.017c.08.01.152.03.216.057.066.027.126.068.185.121.06.053.126.123.2.212l5.55 6.845c-.021-.219-.036-.431-.048-.637-.01-.207-.016-.399-.016-.582V0H80.4v11.4h-1.41c-.209 0-.385-.032-.53-.095-.145-.061-.282-.177-.418-.344L72.533 4.17c.015.198.03.392.04.582.01.19.017.37.017.537V11.4H70.2V0h1.427c.117 0 .216.004.297.017M87.586 9.906c.363 0 .684-.035.964-.098.28-.064.546-.15.793-.258V7.77h-1.119c-.167 0-.295-.046-.39-.138-.093-.091-.137-.208-.137-.348V5.786h4.025v4.958c-.29.22-.593.408-.906.567-.314.159-.648.29-1.002.392-.356.102-.733.176-1.136.226-.4.046-.833.071-1.294.071-.829 0-1.596-.151-2.3-.456-.706-.303-1.317-.723-1.833-1.256-.515-.535-.918-1.17-1.212-1.903-.293-.734-.439-1.53-.439-2.389 0-.875.139-1.682.42-2.416.28-.731.68-1.365 1.2-1.895.522-.533 1.152-.946 1.89-1.243C85.849.146 86.674 0 87.586 0c.471 0 .916.039 1.33.119.414.083.797.192 1.147.33.349.14.67.309.96.502.29.192.55.403.777.629l-.762 1.2c-.072.113-.16.201-.26.266s-.211.096-.331.096c-.156 0-.316-.054-.482-.16-.208-.13-.401-.242-.587-.336-.184-.092-.372-.17-.564-.229-.19-.06-.394-.1-.605-.13-.213-.025-.451-.041-.717-.041-.491 0-.935.092-1.328.272-.394.18-.73.435-1.008.76-.275.33-.49.722-.64 1.182-.151.46-.226.97-.226 1.536 0 .623.082 1.176.248 1.66.167.485.395.89.687 1.227.293.332.643.586 1.044.76.4.175.84.263 1.317.263M7.075 21.91c.054 0 .107.01.16.03.053.02.105.056.153.106l.892.965c-.39.527-.88.921-1.468 1.189s-1.283.4-2.087.4c-.736 0-1.397-.128-1.98-.387-.583-.256-1.078-.614-1.484-1.067-.406-.455-.718-.995-.935-1.62C.108 20.905 0 20.229 0 19.498c0-.743.123-1.428.373-2.053.247-.622.595-1.16 1.041-1.613.446-.453.979-.803 1.601-1.055.621-.25 1.307-.376 2.057-.376.364 0 .706.033 1.028.098.322.067.623.16.903.275.279.118.536.256.772.419.234.161.442.34.625.536l-.758 1.049c-.05.064-.108.122-.173.174-.068.053-.16.08-.28.08-.081 0-.156-.018-.227-.054-.072-.038-.146-.082-.226-.135l-.262-.17c-.097-.063-.21-.119-.34-.173-.132-.052-.285-.096-.459-.132-.176-.037-.381-.056-.616-.056-.408 0-.781.074-1.12.222-.337.15-.626.362-.868.638-.241.275-.43.611-.565 1.003-.136.394-.204.834-.204 1.323 0 .511.068.965.204 1.363.135.397.32.732.552 1.003.233.273.504.479.816.621.31.142.642.212.998.212.204 0 .39-.01.56-.03.168-.02.324-.056.468-.107.145-.05.282-.115.413-.194.131-.082.263-.18.396-.299.054-.047.111-.084.174-.112.061-.031.126-.044.192-.044M16.87 19.497c0-.494-.064-.938-.19-1.334-.124-.394-.305-.728-.541-1.003-.236-.274-.525-.483-.867-.63-.34-.146-.728-.22-1.164-.22-.441 0-.833.074-1.176.22-.343.147-.633.356-.87.63-.235.275-.415.61-.541 1.003-.127.396-.19.84-.19 1.334 0 .498.063.943.19 1.34.126.394.306.727.54 1.002.238.275.528.484.871.628.343.143.735.215 1.176.215.436 0 .824-.072 1.164-.215.342-.144.631-.353.867-.628s.417-.608.542-1.003c.125-.396.189-.84.189-1.339zm2.33 0c0 .72-.122 1.394-.366 2.013-.245.623-.59 1.162-1.034 1.622-.446.46-.98.817-1.606 1.078-.628.26-1.323.39-2.086.39-.764 0-1.46-.13-2.089-.39-.63-.26-1.166-.619-1.614-1.078-.447-.46-.792-1-1.038-1.622C9.123 20.89 9 20.217 9 19.497c0-.722.123-1.392.367-2.014.246-.622.59-1.16 1.038-1.617.448-.456.984-.815 1.614-1.076.629-.26 1.325-.39 2.09-.39.762 0 1.457.13 2.085.393.625.264 1.16.624 1.606 1.08.444.457.79.996 1.034 1.617.244.62.366 1.29.366 2.007zM21.922 14.413c.07.009.134.026.19.052.058.025.11.062.163.108.052.047.11.11.177.19l4.896 6.126c-.018-.195-.033-.386-.041-.57-.01-.184-.015-.358-.015-.522V14.4H29.4v10.2h-1.245c-.183 0-.34-.026-.468-.082-.126-.056-.249-.16-.367-.31L22.46 18.13c.015.176.026.352.036.522.01.17.015.332.015.48V24.6H20.4V14.4h1.259c.105 0 .191.002.263.013M36.468 16.537c-.07.109-.144.193-.222.247-.078.055-.177.082-.3.082-.107 0-.225-.033-.348-.099-.125-.066-.265-.142-.424-.222-.157-.084-.337-.157-.538-.225-.202-.064-.433-.098-.69-.098-.447 0-.779.092-.997.277-.219.187-.328.435-.328.75 0 .201.065.368.196.501.133.132.305.247.519.342.214.096.458.185.732.264.276.081.556.17.843.267.286.099.566.214.84.346.276.134.521.302.735.507.213.206.385.455.517.75.131.295.197.65.197 1.067 0 .46-.082.892-.246 1.295-.165.401-.403.752-.716 1.05-.312.3-.697.534-1.155.707-.458.17-.978.255-1.56.255-.32 0-.645-.03-.976-.095-.33-.063-.651-.154-.96-.271-.311-.116-.603-.254-.876-.413-.271-.16-.51-.34-.711-.536l.705-1.08c.052-.085.124-.152.217-.2.096-.051.196-.076.303-.076.142 0 .284.043.427.13.144.086.306.183.487.288.18.106.388.201.623.288.234.086.512.13.831.13.432 0 .769-.093 1.007-.279.24-.184.36-.476.36-.878 0-.233-.066-.423-.197-.57-.13-.146-.305-.267-.518-.362-.214-.098-.457-.18-.73-.254-.271-.072-.551-.156-.837-.243-.287-.09-.567-.2-.84-.329-.27-.13-.514-.302-.728-.515-.213-.21-.387-.476-.518-.793-.132-.319-.197-.71-.197-1.175 0-.376.078-.742.233-1.098.154-.355.382-.672.683-.95.3-.28.67-.502 1.106-.669.436-.167.936-.25 1.5-.25.316 0 .622.024.919.072.3.049.582.119.85.212.267.093.517.207.749.335.234.132.441.279.624.443l-.591 1.075M45.67 19.497c0-.494-.063-.938-.188-1.334-.126-.394-.307-.728-.543-1.003-.235-.274-.525-.483-.866-.63-.342-.146-.73-.22-1.166-.22-.441 0-.832.074-1.176.22-.343.147-.633.356-.87.63-.234.275-.415.61-.54 1.003-.128.396-.19.84-.19 1.334 0 .498.062.943.19 1.34.125.394.306.727.54 1.002.237.275.527.484.87.628.344.143.735.215 1.176.215.437 0 .824-.072 1.166-.215.34-.144.63-.353.866-.628s.417-.608.543-1.003c.125-.396.188-.84.188-1.339zm2.33 0c0 .72-.12 1.394-.365 2.013-.246.623-.59 1.162-1.035 1.622-.445.46-.98.817-1.607 1.078-.628.26-1.322.39-2.086.39-.764 0-1.459-.13-2.089-.39-.63-.26-1.167-.619-1.613-1.078-.447-.46-.793-1-1.038-1.622-.245-.62-.367-1.293-.367-2.013 0-.722.122-1.392.367-2.014.245-.622.59-1.16 1.038-1.617.446-.456.984-.815 1.613-1.076.63-.26 1.325-.39 2.09-.39.763 0 1.457.13 2.085.393.627.264 1.162.624 1.607 1.08.445.457.79.996 1.035 1.617.245.62.365 1.29.365 2.007zM51.584 19.195h.956c.327 0 .603-.042.831-.123.227-.08.413-.195.556-.34.148-.144.253-.313.32-.507.067-.195.098-.402.098-.626 0-.45-.148-.8-.442-1.051-.292-.251-.745-.378-1.363-.378h-.956v3.025zm0 1.632V24.6H49.2V14.4h3.34c.743 0 1.377.074 1.9.226.525.151.953.363 1.282.633.333.272.571.592.722.96.15.368.228.77.228 1.204 0 .332-.046.645-.134.94-.091.292-.223.564-.399.815-.175.249-.393.472-.648.669-.257.194-.55.356-.884.482.158.08.309.178.446.294.14.117.259.26.364.428L57.6 24.6h-2.154c-.4 0-.688-.149-.863-.447L52.88 21.19c-.075-.131-.164-.225-.264-.281-.1-.055-.245-.083-.426-.083h-.606zM65.4 14.4L65.4 16.274 62.637 16.274 62.637 24.6 60.36 24.6 60.36 16.274 57.6 16.274 57.6 14.4 65.4 14.4M66.6 24.6L69 24.6 69 14.4 66.6 14.4zM75 22.64c.304 0 .577-.052.818-.155.236-.104.44-.252.606-.447.164-.194.291-.43.377-.71.086-.279.131-.597.131-.952V14.4H79.2v5.976c0 .618-.097 1.186-.29 1.703-.198.518-.474.963-.839 1.339-.36.374-.8.664-1.32.871-.517.208-1.1.311-1.751.311-.653 0-1.237-.103-1.759-.31-.516-.208-.956-.498-1.32-.872-.363-.376-.64-.821-.83-1.339-.193-.517-.291-1.085-.291-1.703V14.4h2.269v5.97c0 .355.043.673.13.952.086.278.214.516.38.713.163.196.367.346.607.45.24.103.51.156.814.156M86.451 20.489c.087.191.169.386.25.588.079-.206.162-.407.248-.601.09-.194.18-.38.273-.564l2.604-5.162c.045-.089.093-.158.142-.207.048-.05.103-.085.162-.109.062-.023.132-.034.208-.034H92.4v10.2h-2.073v-5.871c0-.283.014-.592.042-.925l-2.688 5.248c-.085.163-.195.288-.337.371-.143.085-.304.127-.484.127h-.318c-.184 0-.343-.042-.485-.127-.143-.083-.257-.208-.34-.37l-2.7-5.256c.018.164.032.326.042.488.01.16.014.31.014.444V24.6H81V14.4H83.062c.078 0 .146.01.205.034.062.024.118.06.166.11.048.048.093.117.142.206l2.61 5.183c.093.18.182.363.266.556" transform="translate(79.8 12.6)"/>
        </g>
        <g fill="#343534">
            <path d="M2.55.12c.152.08.328.242.523.487l15.275 19.876c-.037-.318-.061-.628-.073-.929-.013-.3-.019-.592-.019-.874V0h3.129v26.372H19.58c-.283 0-.518-.049-.709-.148-.19-.097-.377-.263-.56-.497L3.054 5.872c.024.306.043.607.055.9.012.295.018.565.018.81v18.79H0V0h1.84c.32 0 .556.04.71.12M45.787 0L45.787 3 37.266 3 37.266 26.372 33.696 26.372 33.696 3 25.138 3 25.138 0 45.787 0M68.735 13.195c0-1.619-.22-3.066-.664-4.343-.441-1.276-1.066-2.356-1.877-3.238-.808-.884-1.79-1.56-2.943-2.025-1.154-.466-2.436-.699-3.846-.699h-6.276v20.593h6.276c1.41 0 2.692-.234 3.846-.7 1.153-.465 2.135-1.137 2.943-2.014.811-.878 1.436-1.954 1.877-3.23.444-1.277.664-2.724.664-4.344zm3.662 0c0 1.976-.312 3.774-.94 5.392-.625 1.62-1.507 3.006-2.649 4.16-1.141 1.153-2.51 2.046-4.103 2.677-1.594.632-3.362.948-5.3.948H49.54V0h9.864c1.938 0 3.706.316 5.3.948 1.594.633 2.962 1.528 4.103 2.687 1.142 1.16 2.024 2.548 2.65 4.169.627 1.619.94 3.416.94 5.391z" transform="translate(0 11.468)"/>
        </g>
        <g transform="translate(180.6)">
            <path fill="#DE4D3B" d="M35.4 22.784L30.725 27.922 21.346 21.713 25.037 14.905 35.4 22.784"/>
            <path fill="#E6752B" d="M30.317 28.675L29.084 34.399 18.923 29.823 21.04 22.514 30.317 28.675"/>
            <path fill="#D4244B" d="M14.632 0.041L24.39 14.309 20.714 21.092 13.495 12.275 14.632 0.041"/>
            <path fill="#DA333A" d="M13.157 13.207L20.321 21.961 18.189 29.338 8.512 21.715 13.157 13.207"/>
            <path fill="#E36738" d="M0.559 29.563L8.008 22.403 17.863 30.167 12.971 38.197 0.559 29.563"/>
            <path fill="#F3BC41" d="M41.567 41.449L29.873 34.793 31.124 28.991 42.443 32.117 41.567 41.449"/>
            <path fill="#ED9D2D" d="M42.749 31.317L31.58 28.253 36.208 23.164 47.445 25.672 42.749 31.317"/>
            <mask id="prefix__b" fill="#fff">
                <use xlink:href="#prefix__a"/>
            </mask>
            <path fill="#EA893A" d="M24.596 40.071L13.8 38.479 18.599 30.6 28.704 35.161 24.596 40.071" mask="url(#prefix__b)"/>
            <path fill="#FFF101" d="M38.253 49.7L25.393 40.449 29.488 35.554 41.388 42.331 38.253 49.7" mask="url(#prefix__b)"/>
        </g>
    </g>
</svg>
