<svg xmlns="http://www.w3.org/2000/svg" xmlns:xlink="http://www.w3.org/1999/xlink" width="83" height="83" viewBox="0 0 83 83">
    <defs>
        <path id="prefix__a" d="M0.018 0.156L82.843 0.156 82.843 83 0.018 83z"/>
    </defs>
    <g fill="none" fill-rule="evenodd" opacity=".6">
        <mask id="prefix__b" fill="#fff">
            <use xlink:href="#prefix__a"/>
        </mask>
        <path stroke="#000" stroke-width="1.28" d="M0.018 83L82.843 83 82.843 0.156 0.018 0.156z" mask="url(#prefix__b)"/>
        <path fill="#000" d="M11.254 58.822c-.276.276-.708.492-1.357.492-.529 0-1.035-.164-1.378-.506-.447-.448-.432-1.014-.432-1.506v-3.055h.67v3.13c0 .38-.015.752.284 1.05.2.201.514.313.879.313s.64-.127.82-.305c.335-.336.305-.716.305-1.558v-2.63h.656v2.526c0 .924.03 1.572-.447 2.05M16.492 59.217L14.144 55.26 14.159 59.217 13.548 59.217 13.548 54.247 14.211 54.247 16.559 58.219 16.544 54.247 17.155 54.247 17.155 59.217 16.492 59.217M19.16 59.217L19.831 59.217 19.831 54.247 19.16 54.247zM23.558 59.217L22.82 59.217 21.106 54.247 21.799 54.247 23.208 58.532 24.654 54.247 25.302 54.247 23.558 59.217M26.604 59.217L26.604 54.247 29.355 54.247 29.355 54.798 27.26 54.798 27.26 56.363 29.228 56.363 29.228 56.899 27.26 56.899 27.26 58.651 29.414 58.651 29.414 59.217 26.604 59.217M33.137 55.037c-.269-.269-.62-.261-1.022-.261h-.514v1.78h.231c.477 0 .962.016 1.275-.297.156-.157.246-.388.246-.626 0-.269-.105-.485-.216-.596zm.529 4.18l-.574-1.296c-.343-.768-.507-.835-1.178-.835h-.313v2.131h-.655v-4.97h1.103c.663 0 1.177-.008 1.58.395.245.245.387.573.387.99 0 .344-.097.634-.306.858-.179.193-.47.357-.797.395.164.007.328.104.425.2.149.15.253.388.387.694l.641 1.438h-.7zM36.927 59.322c-.88 0-1.468-.477-1.528-.537l.32-.462c.09.06.575.425 1.178.425.611 0 .969-.365.969-.82 0-.544-.609-.812-1.146-1.073-.633-.306-1.18-.634-1.18-1.364 0-.79.642-1.341 1.558-1.341.917 0 1.372.454 1.416.506l-.335.433c-.06-.052-.455-.373-1.036-.373-.544 0-.932.268-.932.715 0 .47.44.644.932.897.44.224 1.416.564 1.416 1.54 0 .82-.604 1.454-1.632 1.454M40.13 59.217L40.801 59.217 40.801 54.247 40.13 54.247zM44.226 54.798L44.226 59.217 43.555 59.217 43.555 54.798 42.094 54.798 42.094 54.247 45.679 54.247 45.679 54.798 44.226 54.798M48.573 57.25L48.573 59.217 47.91 59.217 47.91 57.25 46.337 54.247 47.07 54.247 48.282 56.586 49.472 54.247 50.145 54.247 48.573 57.25M55.7 54.716c-.947 0-1.565.798-1.565 2.012 0 1.207.693 2.012 1.602 2.012 1.036 0 1.572-.886 1.572-2.057 0-1.185-.663-1.967-1.61-1.967zm.007 4.598c-1.311 0-2.258-1.066-2.258-2.57 0-1.536.94-2.594 2.295-2.594 1.327 0 2.251 1.058 2.251 2.556 0 1.55-.931 2.608-2.288 2.608zM60.248 54.798L60.248 56.363 62.156 56.363 62.156 56.899 60.248 56.899 60.248 59.217 59.585 59.217 59.585 54.247 62.275 54.247 62.275 54.798 60.248 54.798M16.384 69.045c0-2.89-1.373-4.843-3.742-4.843-2.568 0-3.735 2.363-3.735 4.843 0 2.892 1.372 4.855 3.735 4.855 2.572 0 3.742-2.368 3.742-4.855zm1.776-.058c0 3.184-2.451 5.49-5.518 5.49-3.121 0-5.518-2.336-5.518-5.373 0-3.18 2.455-5.488 5.518-5.488 3.126 0 5.518 2.333 5.518 5.371zM50.077 69.045c0-2.89-1.372-4.843-3.739-4.843-2.57 0-3.737 2.363-3.737 4.843 0 2.892 1.372 4.855 3.737 4.855 2.57 0 3.74-2.368 3.74-4.855zm1.78-.058c0 3.184-2.453 5.49-5.519 5.49-3.121 0-5.518-2.336-5.518-5.373 0-3.18 2.454-5.488 5.518-5.488 3.124 0 5.519 2.333 5.519 5.371zM58.515 70.805c-.613-.88-.848-1.144-1.606-1.144h-.79v3.508c0 .294.088.438.438.498l1.198.233v.413h-4.728V73.9l1.079-.233c.351-.09.436-.204.436-.498v-8.233c0-.293-.114-.44-.436-.5l-1.08-.234v-.409h4.612c.965 0 1.636.087 2.19.293 1.138.438 1.78 1.523 1.78 2.539 0 1.288-.962 2.362-2.569 2.743v.06c.323.144.497.352 1.636 1.844l1.46 1.897c.204.294.438.498.816.557l.994.174v.413h-2.539c-.293 0-.44-.09-.702-.442l-2.189-3.066zm-2.396-1.73h1.314c1.986 0 2.396-1.22 2.396-2.42 0-.899-.381-1.632-1.314-2.042-.498-.205-.965-.234-1.606-.234h-.79v4.695zM37.93 67.416h.496v3.478h-.496l-.206-.999c-.084-.379-.318-.527-.67-.527h-2.54v3.801c0 .294.088.438.437.498l1.2.233v.413h-4.733V73.9l1.08-.233c.351-.09.44-.204.44-.498v-8.233c0-.293-.118-.44-.44-.5l-1.08-.234v-.409h7.972v2.626h-.495l-.41-1.483c-.117-.412-.352-.557-.702-.557h-3.268v4.402h2.539c.352 0 .586-.137.67-.515l.206-.85M67.859 64.38v8.875c0 .382.086.471.467.471h1.284c1.226 0 2.13-.148 2.774-.616 1.08-.79 1.548-2.158 1.548-3.976 0-1.778-.467-3.467-1.927-4.317-.616-.35-1.402-.438-2.629-.438h-1.517zm-3.067 9.933V73.9l1.08-.233c.35-.09.438-.204.438-.498v-8.233c0-.293-.117-.44-.439-.5l-1.08-.234v-.409h4.936c1.343 0 2.307.173 3.093.527 1.987.91 2.89 2.862 2.89 4.784 0 1.875-.697 3.623-2.48 4.563-.817.437-1.956.646-3.444.646h-4.994zM22.309 73.9v.413H18.54V73.9l.933-.203c.35-.09.615-.204.82-.472l3.156-4.031-3.155-4.258c-.206-.293-.47-.44-.79-.528l-.875-.206v-.409h4.644v.409l-.995.177c-.32.058-.29.145-.113.38l2.332 3.302h.06l2.422-3.244c.176-.234.176-.35-.088-.409l-.933-.206v-.409h3.765v.409l-.932.206c-.352.087-.616.205-.82.468l-3.004 3.768 3.355 4.525c.205.294.469.438.791.528l.873.203v.413h-4.644V73.9l.997-.174c.317-.06.288-.148.116-.383l-2.544-3.563h-.057l-2.599 3.563c-.176.235-.204.294.117.354l.936.203M58.39 20.598c0-.613-.208-1.108-.657-1.372-.282-.165-.663-.219-1.132-.219h-3.402v6.9h3.704c.857 0 1.361.192 1.405.961h.082v-6.27M58.983 20.598c0-.613.207-1.108.657-1.372.281-.165.662-.219 1.132-.219h3.426v6.9H60.47c-.857 0-1.362.192-1.406.961h-.082v-6.27"/>
        <path fill="#000" d="M64.956 19.446v7.396H59.57l-.074.183c-.087.216-.246.416-.805.416-.56 0-.718-.2-.806-.416l-.074-.183h-5.367v-7.396h-.585v.191l-.41-.125c-.06-.183-.23-.315-.431-.315-.252 0-.457.205-.457.457 0 .253.205.457.457.457.105 0 .2-.037.278-.096l.563.173v.564l-.405-.072c-.07-.149-.215-.255-.39-.263-.252-.012-.466.182-.478.434-.013.252.182.466.434.478.133.006.254-.045.341-.132l.498.09v.577l-.425-.019c-.081-.126-.223-.21-.384-.21-.252 0-.457.204-.457.456 0 .253.205.457.457.457.147 0 .275-.07.36-.177l.45.02v.627l-.44.016c-.084-.109-.214-.18-.362-.18-.252 0-.456.204-.456.456s.204.457.456.457c.16 0 .3-.083.382-.207l.42-.015v.578l-.487.083c-.082-.083-.197-.134-.323-.134-.252 0-.457.205-.457.457 0 .253.205.457.457.457.182 0 .337-.107.411-.26l.398-.07v.567l-.54.164c-.076-.06-.172-.096-.277-.096-.252 0-.457.204-.457.457 0 .252.205.457.457.457.202 0 .371-.132.432-.314l.385-.118v.544l-.602.26c-.075-.046-.164-.07-.257-.067-.252.01-.449.223-.439.475.01.252.223.448.475.438.213-.008.385-.162.427-.362l.396-.171v.537h5.592c.238.394.638.599 1.24.599.601 0 1.002-.205 1.24-.6h5.608v-7.98h-.584M55.027 17.047c-1.126 0-2.039.175-2.039.39 0 .217.913.392 2.039.392 1.125 0 2.038-.175 2.038-.391 0-.216-.913-.391-2.038-.391M57.834 14.521l-1.177.827-.01.084.28.126c.055.028.055.072.027.099l-.739.624-.07-.006-.524-.772c-.036-.05-.023-.1.04-.11l.351-.058v-.089l-.91-1.287h-.15l-.912 1.287v.09l.352.056c.063.01.076.06.04.11l-.524.773-.07.006-.69-.624c-.029-.027-.028-.071.027-.1l.28-.125-.01-.084-1.226-.827-.1.04.72 2.198c.366-.164 1.205-.28 2.187-.284.983.005 1.822.12 2.188.284l.72-2.199-.1-.039M58.683 31.793c-1.126 0-2.039.175-2.039.39 0 .217.913.392 2.039.392 1.126 0 2.039-.175 2.039-.391 0-.216-.913-.391-2.039-.391M61.49 29.267l-1.177.828-.01.083.28.126c.055.028.056.072.027.1l-.74.623-.07-.006-.523-.772c-.036-.05-.023-.1.04-.11l.352-.058v-.088l-.911-1.288h-.15l-.911 1.288v.088l.351.057c.063.01.076.06.04.11l-.524.773-.07.006-.69-.624c-.028-.027-.028-.071.027-.099l.28-.126-.01-.083-1.226-.828-.099.04.72 2.199c.365-.165 1.204-.28 2.186-.285.983.005 1.822.12 2.187.285l.72-2.2-.1-.039M62.33 17.047c-1.126 0-2.038.175-2.038.39 0 .217.912.392 2.038.392s2.039-.175 2.039-.391c0-.216-.913-.391-2.039-.391M65.137 14.521l-1.177.827-.01.084.28.126c.055.028.056.072.027.099l-.739.624-.07-.006-.523-.772c-.036-.05-.024-.1.04-.11l.35-.058v-.089l-.91-1.287h-.15l-.911 1.287v.09l.352.056c.062.01.076.06.04.11l-.524.773-.07.006-.69-.632c-.03-.027-.029-.072.026-.1l.28-.117-.01-.084-1.226-.827-.099.04.72 2.198c.365-.164 1.204-.28 2.187-.284.982.005 1.821.12 2.187.284l.72-2.199-.1-.039M59.085 8.602c0 .231-.187.418-.418.418-.23 0-.418-.187-.418-.418 0-.231.187-.418.418-.418.23 0 .418.187.418.418M68.847 12.5c-.012.23-.209.407-.44.395-.23-.012-.407-.208-.395-.44.011-.23.209-.407.439-.395.23.012.408.21.396.44"/>
        <path fill="#000" d="M53.99 20.824c0 .137.034.163.107.163.131 0 .264-.146.264-.419 0-.33-.166-.422-.296-.422-.035 0-.054.004-.065.01-.008.003-.01.039-.01.077v.591zm.075-.756c.188 0 .343.037.445.137.071.07.13.184.13.316 0 .383-.287.547-.639.547h-.392v-.06c.111-.009.123-.02.123-.186v-.507c0-.166-.012-.177-.11-.187v-.06h.443zM55.056 20.525c0 .275.103.476.252.476.131 0 .202-.126.202-.402 0-.305-.109-.474-.24-.474-.117 0-.214.134-.214.4zm.738.026c0 .326-.223.53-.515.53-.307 0-.506-.225-.506-.504 0-.247.164-.531.528-.531.278 0 .493.204.493.505zM57.137 20.068v.06c-.116.01-.122.017-.117.176l.015.51c.004.169.008.173.117.184v.06h-.476v-.06c.114-.01.119-.015.117-.184l-.004-.535h-.007l-.293.762h-.082l-.279-.71h-.003l-.01.339c-.005.13-.003.203.003.25.005.057.04.07.138.078v.06h-.376v-.06c.073-.006.102-.021.111-.078.008-.047.017-.127.025-.266l.017-.307c.01-.192-.002-.208-.122-.22v-.059h.357l.266.603.233-.603h.37M57.63 20.814c0 .164.013.175.118.184v.06h-.493v-.06c.106-.01.118-.02.118-.184v-.502c0-.164-.012-.175-.118-.184v-.06h.493v.06c-.105.009-.117.02-.117.184v.502M55.181 22.894h-.131l-.563-.719h-.003v.28c0 .16.006.244.013.29.007.054.048.074.149.079v.059h-.38v-.06c.068-.003.107-.024.115-.077.006-.047.012-.13.012-.29v-.28c0-.113-.003-.133-.034-.175-.022-.033-.06-.043-.115-.048v-.06h.336l.507.632h.003v-.204c0-.16-.006-.243-.012-.29-.008-.053-.049-.073-.15-.078v-.06h.388v.06c-.075.003-.115.025-.123.078-.006.047-.012.13-.012.29v.573M55.797 22.894l-.302-.793c-.05-.13-.081-.138-.154-.148v-.06h.491v.06l-.052.006c-.056.006-.056.02-.039.074.027.085.148.385.204.534.047-.13.144-.42.169-.492.031-.093.023-.11-.046-.117l-.046-.005v-.06h.369v.06c-.087.011-.109.019-.168.157-.009.021-.194.473-.308.784h-.118M56.484 22.57c.031.088.121.257.27.257.08 0 .14-.052.14-.151 0-.09-.059-.14-.152-.182l-.023-.011c-.124-.058-.266-.137-.266-.3 0-.172.125-.312.363-.312.047 0 .096.006.14.018l.08.022c.006.06.016.134.033.237l-.067.01c-.033-.1-.087-.208-.207-.208-.077 0-.132.06-.132.133 0 .076.06.12.157.164l.033.015c.14.064.26.142.26.32 0 .187-.15.324-.386.324-.06 0-.123-.012-.165-.026-.045-.016-.077-.028-.095-.037-.012-.07-.032-.152-.05-.254l.067-.02M54.504 24.465c0 .164.013.175.118.184v.06h-.493v-.06c.104-.01.117-.02.117-.184v-.502c0-.164-.013-.175-.117-.184v-.06h.493v.06c-.105.009-.118.02-.118.184v.502M55.107 24.485c0 .079.003.117.03.13.025.013.06.014.107.014.049 0 .114-.004.146-.044.024-.029.05-.07.074-.15l.066.01c-.01.058-.041.216-.055.263h-.755v-.059c.116-.01.128-.02.128-.184v-.502c0-.164-.012-.175-.114-.184v-.06h.495v.06c-.11.009-.122.02-.122.184v.522M55.956 24.485c0 .079.003.117.03.13.025.013.06.014.107.014.049 0 .114-.004.146-.044.024-.029.05-.07.074-.15l.066.01c-.01.058-.041.216-.055.263h-.755v-.059c.116-.01.128-.02.128-.184v-.502c0-.164-.012-.175-.114-.184v-.06h.495v.06c-.11.009-.122.02-.122.184v.522M56.683 24.72l-.303-.794c-.05-.13-.08-.138-.154-.147v-.06h.492v.06l-.052.006c-.056.006-.056.02-.04.073.028.085.148.385.204.534.048-.13.145-.42.17-.491.031-.093.022-.11-.047-.117l-.045-.005v-.06h.368v.06c-.086.01-.108.018-.167.157-.01.02-.195.473-.309.783h-.117M60.885 20.101v.06c-.116.01-.122.017-.118.177l.016.509c.004.169.007.174.116.184v.06h-.475v-.06c.114-.01.118-.015.117-.184l-.005-.535h-.006l-.294.762h-.082l-.278-.71h-.003l-.01.339c-.006.13-.004.203.002.25.006.057.04.07.138.078v.06h-.375v-.06c.073-.006.102-.021.11-.078.009-.047.018-.127.025-.266l.017-.307c.01-.191-.001-.208-.122-.219v-.06h.357l.267.603.233-.603h.37M61.379 20.847c0 .164.012.175.117.184v.06h-.493v-.06c.105-.009.117-.02.117-.184v-.502c0-.164-.012-.175-.117-.184v-.06h.493v.06c-.105.01-.117.02-.117.184v.502M62.51 21.101h-.13l-.563-.718h-.003v.28c0 .16.006.243.012.29.008.054.049.073.15.078v.06h-.38v-.06c.067-.003.107-.024.114-.078.007-.047.012-.13.012-.29v-.28c0-.112-.002-.132-.033-.175-.023-.032-.06-.043-.115-.047v-.06h.336l.506.632h.003v-.204c0-.16-.006-.243-.012-.29-.007-.054-.049-.074-.15-.078v-.06h.389v.06c-.076.003-.116.024-.123.078-.006.047-.012.13-.012.29v.572M62.953 20.7h.195l-.096-.29h-.004l-.095.29zm.193.331l.047-.006c.056-.007.059-.023.039-.077l-.055-.156h-.25l-.045.146c-.02.066-.02.08.05.088l.044.005v.06h-.355v-.06c.078-.01.101-.017.151-.145l.304-.786.106-.021.103.287c.066.181.13.36.189.516.048.132.076.14.15.15v.058h-.478v-.059zM60.872 22.673c0 .164.013.175.14.184v.059h-.532v-.06c.122-.008.134-.02.134-.183v-.667h-.026c-.102 0-.143.019-.168.046-.017.023-.036.062-.056.148H60.3c.007-.128.016-.233.019-.31h.047c.023.034.038.037.079.037h.607c.04 0 .047-.01.071-.038h.048c.001.064.009.193.016.306l-.067.005c-.022-.092-.039-.131-.062-.157-.026-.028-.076-.037-.15-.037h-.036v.667M61.669 22.673c0 .164.012.175.117.184v.059h-.493v-.06c.105-.008.117-.02.117-.183v-.502c0-.165-.012-.175-.117-.184v-.06h.493v.06c-.105.009-.117.02-.117.184v.502M62.196 22.383c0 .276.103.477.253.477.13 0 .202-.127.202-.402 0-.306-.11-.474-.24-.474-.118 0-.215.133-.215.4zm.738.027c0 .325-.222.529-.514.529-.308 0-.507-.224-.507-.504 0-.246.164-.53.528-.53.278 0 .493.203.493.505zM61.322 23.753v.059c-.116.01-.122.017-.118.176l.016.51c.004.17.007.174.117.184v.06h-.477v-.06c.115-.01.119-.015.118-.184l-.005-.536h-.006l-.294.763h-.082l-.278-.71h-.003l-.011.339c-.004.13-.003.203.003.25.006.057.04.07.139.078v.06h-.376v-.06c.073-.006.102-.021.11-.077.008-.048.018-.128.025-.267l.017-.307c.01-.192-.002-.208-.122-.22v-.058h.358l.266.602.233-.602h.37M61.557 23.996c0-.164-.012-.175-.114-.184v-.06h.721l.017.252-.067.004c-.016-.074-.032-.117-.057-.141-.024-.026-.074-.035-.154-.035h-.026c-.058 0-.061 0-.061.053v.293h.076c.13 0 .135-.008.15-.124h.067v.359h-.067c-.015-.134-.02-.143-.15-.143h-.076v.248c0 .079.003.117.03.13.025.013.06.014.106.014.061 0 .128-.009.162-.045.026-.027.052-.084.074-.157l.068.01c-.008.075-.04.23-.054.272h-.774v-.06c.117-.01.129-.02.129-.184v-.502M62.596 24.352h.195l-.096-.29h-.005l-.094.29zm.194.33l.045-.006c.056-.007.06-.023.04-.078l-.055-.154h-.25l-.046.146c-.02.065-.02.08.05.088l.045.004v.06h-.355v-.06c.078-.01.101-.017.151-.144l.304-.787.105-.021.103.287.19.516c.048.132.076.14.15.15v.059h-.478v-.06zM57.295 37.266c0 .232-.187.419-.418.419-.231 0-.418-.187-.418-.419 0-.23.187-.418.418-.418.23 0 .418.187.418.418M61.412 37.942c0 .23-.187.418-.418.418-.23 0-.418-.187-.418-.418 0-.231.187-.418.418-.418.231 0 .418.187.418.418M45.624 15.127L45.624 15.127M61.899 10.545L61.899 10.545M62.683 7.79L62.683 7.79M69.234 15.857L69.234 15.857M73.824 24.932L73.824 24.932M72.391 29.06L72.391 29.06M47.488 29.39c.143 0 .548.04.89.527.141.2.241.437.24.684 0 .41-.2.646-.68.984l-1.274.9-.346-.494 1.426-1.006c.132-.093.308-.246.309-.441 0-.108-.015-.196-.112-.335-.151-.215-.31-.233-.41-.233-.152 0-.295.09-.602.306l-1.236.806-.337-.479 1.313-.859c.347-.244.57-.361.819-.36M45.219 28.225L46.963 27.541 47.151 28.03 44.518 29.051 44.331 28.54 45.694 26.805 43.937 27.419 43.749 26.905 46.407 25.976 46.583 26.458 45.219 28.225M43.326 24.722L46.123 24.297 46.214 24.892 43.417 25.318 43.326 24.722M46.023 22.44L43.155 23.299 43.18 22.693 45.332 22.113 43.238 21.342 43.263 20.752 46.048 21.855 46.023 22.44M43.563 19.221L44.032 17.572 44.497 17.704 44.19 18.782 44.823 18.962 45.111 17.95 45.568 18.08 45.28 19.092 45.973 19.289 46.289 18.179 46.762 18.314 46.284 19.995 43.563 19.221M45.794 15.19c-.144.04-.219.152-.326.345l-.093.16.686.37.116-.208c.097-.174.119-.273.084-.394-.026-.093-.113-.19-.198-.237-.1-.056-.2-.056-.269-.036zm2.09.857l-.839-.074c-.397-.037-.435.058-.547.258l-.033.06.995.528-.296.523-2.487-1.361.407-.716c.185-.33.38-.68.878-.68.313 0 .748.262.748.734 0 .084-.02.173-.056.266.112-.162.315-.186.5-.184.101.001.201.017.284.024l.755.066-.31.556zM49.136 10.476L49.617 10.113 51.32 12.373 50.839 12.736 49.136 10.476M52.311 9.073L53.386 11.158 52.851 11.434 51.776 9.349 51.086 9.705 50.864 9.276 52.776 8.29 52.998 8.72 52.311 9.073M55.623 9.224L55.896 10.319 55.336 10.459 55.063 9.364 53.787 7.929 54.38 7.781 55.224 8.768 55.508 7.498 56.076 7.359 55.623 9.224M65.864 10.241L66.757 10.772 66.514 11.181 65.621 10.649 65 11.692 64.49 11.388 65.938 8.956 67.388 9.82 67.141 10.236 66.201 9.676 65.864 10.241M70.949 19.433L71.723 18.581 70.599 18.316 70.414 17.725 72.084 18.161 73.131 16.936 73.326 17.555 72.607 18.339 73.65 18.591 73.831 19.17 72.279 18.754 71.142 20.048 70.949 19.433M73.655 21.45L72.999 21.503 73.069 22.548 72.595 22.579 72.525 21.543 71.315 21.624 71.274 21.056 74.098 20.825 74.211 22.526 73.729 22.558 73.655 21.45"/>
        <path fill="#000" d="M68.562 35.737c-2.713.956-5.247.895-7.414.417.07-.928.414-1.956.986-2.11 4.874-1.478 8.432-6.003 8.432-11.343 0-6.537-5.329-11.854-11.879-11.854S46.808 16.164 46.808 22.7c0 3.57 1.636 6.966 4.402 9.208-.648.311-1.201.787-1.608 1.37-.195-.135-.383-.275-.558-.419l-.11.112c.12.145.298.332.515.542-.37.617-.587 1.336-.587 2.107 0 .053.006.104.008.157-4.146-3.117-6.581-8.001-6.539-13.21.037-4.532 1.881-8.731 5.194-11.825 3.075-2.872 7.086-4.434 11.295-4.4 9.02.073 16.297 7.47 16.224 16.49-.042 5.123-2.404 9.811-6.482 12.904zM59.076 39.6c-2.258 0-5.077-.768-7.013-1.91-.579-.341-1.268-.975-1.268-2.058 0-.282.053-.55.148-.798.731.602 1.48 1.161 1.955 1.42.111.062.176.092.305.092.311 0 .563-.253.563-.566 0-.238-.13-.432-.343-.525-.406-.178-1.248-.526-2.16-.996.41-.535 1.05-.881 1.773-.881.332 0 .652.071.95.212l.616.36c1.96 1.197 6.97 4.255 13.04 2.667-2.293 2.002-5.106 2.983-8.566 2.983zm1.873 1.429c-.65 0-1.132.507-1.132 1.133 0 .73.511 1.17 1.17 1.17.082 0 .161-.01.238-.026-.196.91-1.272 1.897-2.569 2.338-1.274-.441-2.367-1.427-2.564-2.338.077.017.157.026.239.026.659 0 1.17-.44 1.17-1.17 0-.626-.482-1.133-1.133-1.133.164-.301.35-.673.487-1.062.766.131 1.52.203 2.221.203.566 0 1.117-.03 1.655-.082.072.276.247.807.293.946-.023-.003-.047-.005-.075-.005zm-7.944-8.965c1.187 0 2.298.61 2.95 1.585-.574-.143-1.136-.33-1.684-.563l-.002.003-.016-.01c-.382-.18-.792-.27-1.217-.27-.945 0-1.782.462-2.299 1.17-.216-.121-.432-.247-.644-.379.64-.927 1.706-1.536 2.912-1.536zm4.482 2.43c-.093.082-.171.175-.235.275-.362-.154-1.06-.48-1.287-.616.358.115 1.159.305 1.522.341zm3.607-.186c-.292.472-.471 1.084-.534 1.704-1.032-.27-1.971-.628-2.795-1.001.114-.239.382-.46.837-.46l.085.002c.825 0 1.63-.084 2.407-.245zm-2.407-.324c-.662 0-1.315-.06-1.957-.172-.691-1.409-2.15-2.318-3.725-2.318-.404 0-.793.06-1.162.169-2.78-2.13-4.434-5.457-4.434-8.963 0-6.223 5.06-11.285 11.278-11.285 6.22 0 11.278 5.062 11.278 11.285 0 6.222-5.059 11.284-11.278 11.284zm-5.682 5.191c-1.953 0-3.543-1.595-3.543-3.555 0-.613.156-1.19.429-1.694.18.165.374.336.576.508-.173.365-.272.77-.272 1.198 0 1.064.536 1.943 1.55 2.542.59.347 1.257.66 1.965.93-.23.047-.466.071-.705.071zm22.639-16.338c.076-9.334-7.47-16.99-16.82-17.065-4.368-.035-8.53 1.585-11.72 4.564-3.427 3.2-5.335 7.543-5.373 12.226-.045 5.585 2.663 10.812 7.248 14.015.436 1.814 2.073 3.168 4.026 3.168.559 0 1.1-.11 1.61-.324.544.172 1.102.318 1.658.434-.18.497-.437.965-.686 1.39l.406.405c.097-.064.21-.096.325-.096.31 0 .608.212.605.595 0 .312-.21.603-.646.603-.237 0-.543-.125-.709-.48 0 0-.11.346-.11.762 0 1.258 1.368 2.644 3.198 3.223 1.841-.575 3.204-1.965 3.204-3.223 0-.416-.11-.761-.11-.761-.166.354-.472.479-.71.48-.436 0-.646-.292-.646-.604-.002-.383.295-.595.606-.595.114 0 .228.032.325.096l.373-.37.01-.006.015-.02.005.003v-.01l.003-.003-.002-.003c-.183-.439-.317-.839-.41-1.22 3.035-.417 5.598-1.706 7.638-3.85l-.003-.004c4.21-3.2 6.647-8.043 6.69-13.33z"/>
        <path fill="#000" d="M49.65 13.514c0 .242-.106.498-.318.729-.406.444-.84.485-.885.484l-.123-.47c.068-.017.387-.082.613-.33.102-.112.155-.23.155-.336 0-.111-.074-.305-.304-.305-.246 0-.657.356-1.078.356-.162 0-.342-.023-.53-.195-.18-.165-.265-.376-.265-.591 0-.235.107-.481.306-.699.378-.413.794-.446.83-.448l.102.46c-.048.01-.357.077-.549.287-.098.107-.15.224-.15.327 0 .112.07.248.254.25.202.003.71-.37 1.125-.37.191 0 .331.035.525.213.195.178.292.401.292.638M63.506 9.038c0-.196-.044-.4-.163-.559-.122-.164-.324-.28-.563-.28-.507 0-.878.63-.878 1.149 0 .482.325.81.763.81.573 0 .841-.745.841-1.12zm-.822 1.63c-.721 0-1.377-.55-1.377-1.376 0-.738.495-1.594 1.394-1.594.731 0 1.408.516 1.408 1.348 0 .625-.422 1.622-1.425 1.622zM70.433 16.14c.496 0 1.185-.43 1.185-1.009 0-.399-.31-.71-.706-.71-.465 0-1.174.414-1.174.998 0 .311.238.72.695.72zm.1.574c-.861 0-1.336-.83-1.336-1.387 0-.844.909-1.489 1.619-1.489.773 0 1.34.736 1.34 1.403 0 .758-.79 1.473-1.623 1.473zM72.695 25.832c.501 0 .869-.307.869-.757 0-.538-.622-.812-1.103-.812-.616 0-.865.4-.865.777 0 .589.722.792 1.099.792zm-1.605-.784c0-.698.473-1.385 1.413-1.385.791 0 1.556.488 1.556 1.363 0 .72-.461 1.41-1.395 1.41-.8 0-1.575-.504-1.575-1.388zM71.655 28.7c0 .215.181.387.383.387.181 0 .294-.099.4-.334l.09-.211-.7-.329-.117.261c-.039.086-.056.16-.056.225zm-1.641-.316l.841.004c.4.003.43-.095.524-.303l.028-.062-1.012-.47.242-.537 2.562 1.182-.329.737c-.224.496-.416.746-.886.746-.302 0-.744-.25-.74-.712 0-.07.01-.146.033-.227-.15.262-.53.225-.767.225l-.758-.003.262-.58zM69.799 32.343c.299 0 .471-.09.815-.511l.107-.132-1.458-1.186-.179.22c-.176.216-.266.429-.266.633 0 .272.134.512.41.737.199.161.381.239.57.239zm-1.507-.83c0-.579.268-.894.608-1.312l.367-.45 2.194 1.785-.493.605c-.278.342-.605.763-1.235.763-.358 0-.673-.166-.896-.348-.279-.226-.545-.61-.545-1.043z"/>
    </g>
</svg>
