<svg xmlns="http://www.w3.org/2000/svg" width="20" height="20" viewBox="0 0 20 20">
    <g fill="none" fill-rule="evenodd">
        <path d="M0 0H24V24H0z" transform="translate(-7 -7) translate(6 5)"/>
        <path fill="#6236FF" d="M24.14 18c0-.3.1-.6.1-1s0-.7-.1-1l2.1-1.7c.2-.2.2-.4.1-.6l-2-3.5c-.1-.1-.3-.2-.6-.1l-2.5 1c-.5-.4-1.1-.7-1.7-1l-.4-2.6c.1-.3-.2-.5-.4-.5h-4c-.2 0-.5.2-.5.4l-.4 2.7c-.6.2-1.1.6-1.7 1l-2.4-1c-.3-.1-.5 0-.7.2l-2 3.5c-.1.1 0 .4.2.6l2.1 1.6c0 .3-.1.6-.1 1s0 .7.1 1l-2.1 1.7c-.2.2-.2.4-.1.6l2 3.5c.1.1.3.2.6.1l2.5-1c.5.4 1.1.7 1.7 1l.4 2.6c0 .2.2.4.5.4h4c.2 0 .5-.2.5-.4l.4-2.6c.6-.3 1.2-.6 1.7-1l2.5 1c.2.1.5 0 .6-.2l2-3.5c.1-.2.1-.5-.1-.6l-2.3-1.6zm-7.4 2.5c-1.9 0-3.5-1.6-3.5-3.5s1.6-3.5 3.5-3.5 3.5 1.6 3.5 3.5-1.6 3.5-3.5 3.5z" transform="translate(-7 -7)"/>
    </g>
</svg>
