<svg id="ej2ojwpm8jfo1" xmlns="http://www.w3.org/2000/svg" xmlns:xlink="http://www.w3.org/1999/xlink" viewBox="0 0 104 102" shape-rendering="geometricPrecision" text-rendering="geometricPrecision"><style><![CDATA[#ej2ojwpm8jfo3 {animation: ej2ojwpm8jfo3_c_o 5000ms linear infinite normal forwards}@keyframes ej2ojwpm8jfo3_c_o { 0% {opacity: 0} 8% {opacity: 0} 22% {opacity: 1} 32% {opacity: 0} 100% {opacity: 0} }#ej2ojwpm8jfo4 {animation: ej2ojwpm8jfo4_c_o 5000ms linear infinite normal forwards}@keyframes ej2ojwpm8jfo4_c_o { 0% {opacity: 0} 38% {opacity: 0} 48% {opacity: 1} 58% {opacity: 0} 100% {opacity: 0} }#ej2ojwpm8jfo5 {animation: ej2ojwpm8jfo5_c_o 5000ms linear infinite normal forwards}@keyframes ej2ojwpm8jfo5_c_o { 0% {opacity: 0} 60% {opacity: 0} 70% {opacity: 1} 84% {opacity: 0} 100% {opacity: 0} }#ej2ojwpm8jfo6 {animation: ej2ojwpm8jfo6_f_p 5000ms linear infinite normal forwards}@keyframes ej2ojwpm8jfo6_f_p { 0% {fill: rgb(171,147,255)} 44% {fill: rgb(171,147,255)} 52% {fill: rgb(3,211,134)} 56% {fill: rgb(106,189,142)} 100% {fill: rgb(106,189,142)} }#ej2ojwpm8jfo7 {animation: ej2ojwpm8jfo7_f_p 5000ms linear infinite normal forwards}@keyframes ej2ojwpm8jfo7_f_p { 0% {fill: rgb(171,147,255)} 16% {fill: rgb(171,147,255)} 24% {fill: rgb(3,211,134)} 30% {fill: rgb(106,189,142)} 66% {fill: rgb(106,189,142)} 72% {fill: rgb(3,211,134)} 80% {fill: rgb(106,189,142)} 100% {fill: rgb(106,189,142)} }#ej2ojwpm8jfo8 {animation: ej2ojwpm8jfo8_f_p 5000ms linear infinite normal forwards}@keyframes ej2ojwpm8jfo8_f_p { 0% {fill: rgb(171,147,255)} 18% {fill: rgb(171,147,255)} 26% {fill: rgb(3,211,134)} 32% {fill: rgb(106,189,142)} 68% {fill: rgb(106,189,142)} 72% {fill: rgb(3,211,134)} 80% {fill: rgb(106,189,142)} 100% {fill: rgb(106,189,142)} }#ej2ojwpm8jfo9 {animation: ej2ojwpm8jfo9_f_p 5000ms linear infinite normal forwards}@keyframes ej2ojwpm8jfo9_f_p { 0% {fill: rgb(171,147,255)} 66% {fill: rgb(171,147,255)} 72% {fill: rgb(3,211,134)} 80% {fill: rgb(106,189,142)} 100% {fill: rgb(106,189,142)} }#ej2ojwpm8jfo10 {animation: ej2ojwpm8jfo10_f_p 5000ms linear infinite normal forwards}@keyframes ej2ojwpm8jfo10_f_p { 0% {fill: rgb(171,147,255)} 16% {fill: rgb(171,147,255)} 22% {fill: rgb(3,211,134)} 26% {fill: rgb(106,189,142)} 100% {fill: rgb(106,189,142)} }#ej2ojwpm8jfo11 {animation: ej2ojwpm8jfo11_f_p 5000ms linear infinite normal forwards}@keyframes ej2ojwpm8jfo11_f_p { 0% {fill: rgb(171,147,255)} 46% {fill: rgb(171,147,255)} 52% {fill: rgb(3,211,134)} 56% {fill: rgb(106,189,142)} 100% {fill: rgb(106,189,142)} }#ej2ojwpm8jfo12 {animation: ej2ojwpm8jfo12_f_p 5000ms linear infinite normal forwards}@keyframes ej2ojwpm8jfo12_f_p { 0% {fill: rgb(171,147,255)} 16% {fill: rgb(171,147,255)} 24% {fill: rgb(3,211,134)} 28% {fill: rgb(106,189,142)} 66% {fill: rgb(106,189,142)} 72% {fill: rgb(3,211,134)} 76% {fill: rgb(106,189,142)} 100% {fill: rgb(106,189,142)} }#ej2ojwpm8jfo13 {animation: ej2ojwpm8jfo13_f_p 5000ms linear infinite normal forwards}@keyframes ej2ojwpm8jfo13_f_p { 0% {fill: rgb(171,147,255)} 66% {fill: rgb(171,147,255)} 70% {fill: rgb(3,211,134)} 76% {fill: rgb(106,189,142)} 100% {fill: rgb(106,189,142)} }#ej2ojwpm8jfo14 {animation: ej2ojwpm8jfo14_f_p 5000ms linear infinite normal forwards}@keyframes ej2ojwpm8jfo14_f_p { 0% {fill: rgb(171,147,255)} 46% {fill: rgb(171,147,255)} 52% {fill: rgb(3,211,134)} 56% {fill: rgb(106,189,142)} 100% {fill: rgb(106,189,142)} }#ej2ojwpm8jfo15 {animation: ej2ojwpm8jfo15_f_p 5000ms linear infinite normal forwards}@keyframes ej2ojwpm8jfo15_f_p { 0% {fill: rgb(171,147,255)} 16% {fill: rgb(171,147,255)} 26% {fill: rgb(3,211,134)} 30% {fill: rgb(106,189,142)} 64% {fill: rgb(106,189,142)} 68% {fill: rgb(3,211,134)} 72% {fill: rgb(106,189,142)} 100% {fill: rgb(106,189,142)} }#ej2ojwpm8jfo16 {animation: ej2ojwpm8jfo16_f_p 5000ms linear infinite normal forwards}@keyframes ej2ojwpm8jfo16_f_p { 0% {fill: rgb(171,147,255)} 14% {fill: rgb(171,147,255)} 24% {fill: rgb(3,211,134)} 28% {fill: rgb(106,189,142)} 100% {fill: rgb(106,189,142)} }#ej2ojwpm8jfo17 {animation: ej2ojwpm8jfo17_f_p 5000ms linear infinite normal forwards}@keyframes ej2ojwpm8jfo17_f_p { 0% {fill: rgb(171,147,255)} 44% {fill: rgb(171,147,255)} 52% {fill: rgb(3,211,134)} 56% {fill: rgb(106,189,142)} 100% {fill: rgb(106,189,142)} }#ej2ojwpm8jfo18 {animation: ej2ojwpm8jfo18_f_p 5000ms linear infinite normal forwards}@keyframes ej2ojwpm8jfo18_f_p { 0% {fill: rgb(171,147,255)} 18% {fill: rgb(171,147,255)} 26% {fill: rgb(3,211,134)} 34% {fill: rgb(106,189,142)} 66% {fill: rgb(106,189,142)} 72% {fill: rgb(3,211,134)} 78% {fill: rgb(106,189,142)} 100% {fill: rgb(106,189,142)} }]]></style><defs><radialGradient id="ej2ojwpm8jfo2-fill" cx="0.520313" cy="0.500000" r="0.500000" spreadMethod="pad" gradientUnits="objectBoundingBox"><stop id="ej2ojwpm8jfo2-fill-0" offset="0%" stop-color="rgb(106,189,142)"/><stop id="ej2ojwpm8jfo2-fill-1" offset="100%" stop-color="rgba(106,189,142,0)"/></radialGradient></defs><path id="ej2ojwpm8jfo2" d="M52,0C80.718534,0,104,23.281172,104,51.999344C104,80.718828,80.718534,104,52,104C23.281466,104,0,80.718828,0,51.999344C0,23.281172,23.281466,0,52,0" transform="matrix(0 -1 1 0 0 104)" fill="url(#ej2ojwpm8jfo2-fill)" fill-opacity="0.81" fill-rule="evenodd" stroke="none" stroke-width="1"/><path id="ej2ojwpm8jfo3" d="M76.039171,25.426468C73.511171,23.188468,71.939704,22.243302,69.327704,20.550302C65.580704,18.121302,63.859171,15.315468,60.550171,12.789468C58.304171,11.074468,53.409171,10.806468,51.036171,12.472468C48.758171,14.071468,48.950171,17.349468,46.398171,18.256468C43.754171,19.196468,40.563171,17.541468,37.886171,18.826468C35.695171,19.877468,33.158171,22.958468,34.576171,25.440468C35.633171,27.289468,38.798171,28.861468,40.217171,30.679468C45.986171,38.070468,34.552171,37.991468,31.214171,41.303468C26.062171,46.175468,33.971171,55.253468,38.928171,49.336468C51.811171,37.784468,49.115825,65.263290,58.692588,61.267706C68.269350,57.272122,61.202005,52.137396,64.569905,50.460178C67.747992,48.877486,75.933683,50.605746,76.707395,45.658150C78.790395,32.338150,78.389171,27.507468,76.039171,25.426468Z" transform="matrix(-0.58778500000000 -0.80901700000000 0.80901700000000 -0.58778500000000 55.88240000000000 101.49600000000000)" opacity="0" fill="rgb(179,241,218)" fill-rule="evenodd" stroke="none" stroke-width="1"/><path id="ej2ojwpm8jfo4" d="M81.585829,23.684096C81.627829,26.283096,83.340829,28.369096,82.898829,31.202096C82.489829,33.837096,79.589829,35.331096,77.090829,35.702096C74.438829,36.095096,72.130829,34.854096,69.571829,34.759096C66.680829,34.651096,65.064829,36.708096,62.439829,37.533096C58.479829,38.777096,55.586829,36.258096,51.693829,35.693096C47.609829,35.101096,43.441829,38.179096,42.814829,42.159096C42.210829,45.996096,42.763829,48.518096,46.554829,49.676096C50.999829,51.034096,52.609829,52.447096,54.857829,56.456096C56.557829,59.485096,59.971829,62.440096,63.500829,63.016096C66.916829,63.572096,72.750829,62.037096,74.720829,65.903096C76.402829,69.207096,74.508829,72.737096,71.526829,74.249096C69.814829,75.118096,67.598829,75.147096,65.721829,75.116096C62.778829,75.065096,61.327829,73.546096,59.363829,71.471096C55.960829,67.877096,52.516829,62.405096,47.643829,60.831096C44.441829,59.798096,41.128829,60.277096,37.938829,59.389096C35.340829,58.667096,32.800829,57.380096,30.559829,55.889096C26.281829,53.044096,24.664829,46.840096,24.897829,41.911096C25.077829,38.122096,27.376829,31.039096,30.666829,28.794096C32.074829,27.832096,33.923829,27.858096,35.409829,27.016096C37.475829,25.845096,38.632829,23.900096,39.639829,21.849096C41.088829,18.894096,42.777829,16.553096,46.071829,15.467096C49.963829,14.185096,52.359829,15.610096,54.523829,18.907096C56.958829,22.617096,61.378829,27.943096,66.413829,25.386096C70.271829,23.428096,73.981829,18.422096,78.951829,21.478096C80.075829,22.169096,80.902829,23.376096,81.960829,24.247096" transform="matrix(0 -1 1 0 8.73677295000009 104.30814230500002)" opacity="0" fill="rgb(179,241,218)" fill-rule="evenodd" stroke="none" stroke-width="1"/><path id="ej2ojwpm8jfo5" d="M82.286023,20.356105C77.130446,16.610359,65.830290,28.641019,62.521290,26.115019C60.275290,24.400019,61.187753,16.586631,51.660480,18.224178C42.133207,19.861725,48.438454,27.282374,48.582114,30.727470C48.725774,34.172566,48.947715,35.900656,44.899575,37.854225C40.851436,39.807794,24.222836,41.210699,20.884836,44.522699C15.732836,49.394699,23.641836,58.472699,28.598836,52.555699C41.481836,41.003699,46.107918,71.438249,55.684680,67.442665C65.261442,63.447081,58.956248,47.297040,62.027082,42.563753C65.097915,37.830466,74.955307,43.804172,82.205221,37.567705C89.455134,31.331238,87.441600,24.101851,82.286023,20.356105Z" transform="matrix(-0.58778500000000 -0.80901700000000 0.80901700000000 -0.58778500000000 51.17555958500004 105.55177156499997)" opacity="0" fill="rgb(179,241,218)" fill-rule="evenodd" stroke="none" stroke-width="1"/><path id="ej2ojwpm8jfo6" d="M45.723600,68.370100C47.565600,68.370100,49.059600,69.864100,49.059600,71.706100C49.059600,73.549100,47.565600,75.043100,45.723600,75.043100C43.880600,75.043100,42.386600,73.549100,42.386600,71.706100C42.386600,69.864100,43.880600,68.370100,45.723600,68.370100" transform="matrix(0 -1 1 0 -25.98350000000000 117.43000000000001)" fill="rgb(171,147,255)" fill-rule="evenodd" stroke="none" stroke-width="1"/><path id="ej2ojwpm8jfo7" d="M40.089300,43.804700C41.932300,43.804700,43.425300,45.298700,43.425300,47.140700C43.425300,48.983700,41.932300,50.477700,40.089300,50.477700C38.246300,50.477700,36.752300,48.983700,36.752300,47.140700C36.752300,45.298700,38.246300,43.804700,40.089300,43.804700" transform="matrix(0 -1 1 0 -7.05240000000000 87.23000000000000)" fill="rgb(171,147,255)" fill-rule="evenodd" stroke="none" stroke-width="1"/><path id="ej2ojwpm8jfo8" d="M64.828100,38.962900C66.671100,38.962900,68.165100,40.456900,68.165100,42.298900C68.165100,44.141900,66.671100,45.635900,64.828100,45.635900C62.985100,45.635900,61.492100,44.141900,61.492100,42.298900C61.492100,40.456900,62.985100,38.962900,64.828100,38.962900Z" transform="matrix(0 -1 1 0 22.52920000000000 107.12800000000000)" fill="rgb(171,147,255)" fill-rule="evenodd" stroke="none" stroke-width="1"/><path id="ej2ojwpm8jfo9" d="M74.820300,53.292000C76.663300,53.292000,78.157300,54.786000,78.157300,56.628000C78.157300,58.471000,76.663300,59.965000,74.820300,59.965000C72.977300,59.965000,71.484300,58.471000,71.484300,56.628000C71.484300,54.786000,72.977300,53.292000,74.820300,53.292000Z" transform="matrix(0 -1 1 0 18.19230000000000 131.44900000000001)" fill="rgb(171,147,255)" fill-rule="evenodd" stroke="none" stroke-width="1"/><path id="ej2ojwpm8jfo10" d="M49.723600,18C51.565600,18,53.059600,19.494000,53.059600,21.336000C53.059600,23.179000,51.565600,24.673000,49.723600,24.673000C47.880600,24.673000,46.386600,23.179000,46.386600,21.336000C46.386600,19.494000,47.880600,18,49.723600,18Z" transform="matrix(0 -1 1 0 28.38660000000000 71.05960000000000)" fill="rgb(171,147,255)" fill-rule="evenodd" stroke="none" stroke-width="1"/><path id="ej2ojwpm8jfo11" d="M29.821300,52.438500C31.664300,52.438500,33.157300,53.932500,33.157300,55.774500C33.157300,57.617500,31.664300,59.111500,29.821300,59.111500C27.978300,59.111500,26.484300,57.617500,26.484300,55.774500C26.484300,53.932500,27.978300,52.438500,29.821300,52.438500" transform="matrix(0 -1 1 0 -25.95420000000000 85.59580000000000)" fill="rgb(171,147,255)" fill-rule="evenodd" stroke="none" stroke-width="1"/><path id="ej2ojwpm8jfo12" d="M50.723600,33.329100C52.566600,33.329100,54.059600,34.823100,54.059600,36.665100C54.059600,38.508100,52.566600,40.002100,50.723600,40.002100C48.880600,40.002100,47.386600,38.508100,47.386600,36.665100C47.386600,34.823100,48.880600,33.329100,50.723600,33.329100Z" transform="matrix(0 -1 1 0 14.05750000000000 87.38870000000000)" fill="rgb(171,147,255)" fill-rule="evenodd" stroke="none" stroke-width="1"/><path id="ej2ojwpm8jfo13" d="M25.543900,23.536100C27.386900,23.536100,28.880900,25.030100,28.880900,26.872100C28.880900,28.715100,27.386900,30.209100,25.543900,30.209100C23.701900,30.209100,22.207900,28.715100,22.207900,26.872100C22.207900,25.030100,23.701900,23.536100,25.543900,23.536100Z" transform="matrix(0 -1 1 0 -1.32820000000000 52.41700000000000)" fill="rgb(171,147,255)" fill-rule="evenodd" stroke="none" stroke-width="1"/><path id="ej2ojwpm8jfo14" d="M78.455100,31.902300C80.298100,31.902300,81.791100,33.396300,81.791100,35.238300C81.791100,37.081300,80.298100,38.575300,78.455100,38.575300C76.612100,38.575300,75.118100,37.081300,75.118100,35.238300C75.118100,33.396300,76.612100,31.902300,78.455100,31.902300" transform="matrix(0 -1 1 0 43.21580000000000 113.69300000000000)" fill="rgb(171,147,255)" fill-rule="evenodd" stroke="none" stroke-width="1"/><path id="ej2ojwpm8jfo15" d="M37.455000,26.268100C39.298000,26.268100,40.792000,27.762100,40.792000,29.604100C40.792000,31.447100,39.298000,32.941100,37.455000,32.941100C35.612000,32.941100,34.118000,31.447100,34.118000,29.604100C34.118000,27.762100,35.612000,26.268100,37.455000,26.268100" transform="matrix(0 -1 1 0 8.27793814000000 66.76230000000001)" fill="rgb(171,147,255)" fill-rule="evenodd" stroke="none" stroke-width="1"/><path id="ej2ojwpm8jfo16" d="M51.356400,52.072200C53.199400,52.072200,54.693400,53.566200,54.693400,55.408200C54.693400,57.251200,53.199400,58.745200,51.356400,58.745200C49.513400,58.745200,48.020400,57.251200,48.020400,55.408200C48.020400,53.566200,49.513400,52.072200,51.356400,52.072200Z" transform="matrix(0 -1 1 0 -4.05180000000000 106.76600000000001)" fill="rgb(171,147,255)" fill-rule="evenodd" stroke="none" stroke-width="1"/><path id="ej2ojwpm8jfo17" d="M62.088300,58.925800C63.931300,58.925800,65.425300,60.419800,65.425300,62.261800C65.425300,64.104800,63.931300,65.598800,62.088300,65.598800C60.245300,65.598800,58.752300,64.104800,58.752300,62.261800C58.752300,60.419800,60.245300,58.925800,62.088300,58.925800" transform="matrix(0 -1 1 0 -0.17350000000000 124.35100000000000)" fill="rgb(171,147,255)" fill-rule="evenodd" stroke="none" stroke-width="1"/><path id="ej2ojwpm8jfo18" d="M64.828100,22.633800C66.671100,22.633800,68.165100,24.127800,68.165100,25.969800C68.165100,27.812800,66.671100,29.306800,64.828100,29.306800C62.985100,29.306800,61.492100,27.812800,61.492100,25.969800C61.492100,24.127800,62.985100,22.633800,64.828100,22.633800Z" transform="matrix(0 -1 1 0 38.85830000000000 90.79890000000000)" fill="rgb(171,147,255)" fill-rule="evenodd" stroke="none" stroke-width="1"/></svg>