<?xml version="1.0" encoding="UTF-8"?>
<svg shape-rendering="geometricPrecision" text-rendering="geometricPrecision" viewBox="0 0 104 102" xmlns="http://www.w3.org/2000/svg">
<style>#evfa0emtqr4g3 {animation: evfa0emtqr4g3_c_o 10500ms linear infinite normal forwards}@keyframes evfa0emtqr4g3_c_o { 0% {opacity: 0} 11.428571% {opacity: 0} 16.190476% {opacity: 1} 20.952381% {opacity: 0} 34.285714% {opacity: 0} 40% {opacity: 1} 44.761905% {opacity: 0} 60.952381% {opacity: 0} 66.666667% {opacity: 1} 71.428571% {opacity: 0} 100% {opacity: 0} }#evfa0emtqr4g5 {animation: evfa0emtqr4g5_f_p 10500ms linear infinite normal forwards}@keyframes evfa0emtqr4g5_f_p { 0% {fill: rgb(171,147,255)} 79.047619% {fill: rgb(171,147,255)} 80% {fill: rgb(255,76,115)} 81.904762% {fill: rgb(171,147,255)} 83.809524% {fill: rgb(171,147,255)} 84.761905% {fill: rgb(255,76,115)} 86.666667% {fill: rgb(171,147,255)} 100% {fill: rgb(171,147,255)} }#evfa0emtqr4g6 {animation: evfa0emtqr4g6_f_p 10500ms linear infinite normal forwards}@keyframes evfa0emtqr4g6_f_p { 0% {fill: rgb(171,147,255)} 13.333333% {fill: rgb(171,147,255)} 17.142857% {fill: rgb(3,211,134)} 20% {fill: rgb(106,189,142)} 35.238095% {fill: rgb(106,189,142)} 39.047619% {fill: rgb(3,211,134)} 41.904762% {fill: rgb(106,189,142)} 60.952381% {fill: rgb(106,189,142)} 64.761905% {fill: rgb(3,211,134)} 67.619048% {fill: rgb(106,189,142)} 91.428571% {fill: rgb(106,189,142)} 97.142857% {fill: rgb(171,147,255)} 100% {fill: rgb(171,147,255)} }#evfa0emtqr4g7 {animation: evfa0emtqr4g7_f_p 10500ms linear infinite normal forwards}@keyframes evfa0emtqr4g7_f_p { 0% {fill: rgb(171,147,255)} 14.285714% {fill: rgb(171,147,255)} 18.095238% {fill: rgb(3,211,134)} 20.952381% {fill: rgb(106,189,142)} 35.238095% {fill: rgb(106,189,142)} 39.047619% {fill: rgb(3,211,134)} 41.904762% {fill: rgb(106,189,142)} 60.952381% {fill: rgb(106,189,142)} 64.761905% {fill: rgb(3,211,134)} 67.619048% {fill: rgb(106,189,142)} 91.428571% {fill: rgb(106,189,142)} 97.142857% {fill: rgb(171,147,255)} 100% {fill: rgb(171,147,255)} }#evfa0emtqr4g8 {animation: evfa0emtqr4g8_f_p 10500ms linear infinite normal forwards}@keyframes evfa0emtqr4g8_f_p { 0% {fill: rgb(171,147,255)} 79.047619% {fill: rgb(171,147,255)} 80% {fill: rgb(255,76,115)} 81.904762% {fill: rgb(171,147,255)} 83.809524% {fill: rgb(171,147,255)} 85.714286% {fill: rgb(255,76,115)} 86.666667% {fill: rgb(171,147,255)} 100% {fill: rgb(171,147,255)} }#evfa0emtqr4g9 {animation: evfa0emtqr4g9_f_p 10500ms linear infinite normal forwards}@keyframes evfa0emtqr4g9_f_p { 0% {fill: rgb(171,147,255)} 13.333333% {fill: rgb(171,147,255)} 16.190476% {fill: rgb(3,211,134)} 18.095238% {fill: rgb(106,189,142)} 34.285714% {fill: rgb(106,189,142)} 37.142857% {fill: rgb(3,211,134)} 39.047619% {fill: rgb(106,189,142)} 60.952381% {fill: rgb(106,189,142)} 63.809524% {fill: rgb(3,211,134)} 65.714286% {fill: rgb(106,189,142)} 91.428571% {fill: rgb(106,189,142)} 97.142857% {fill: rgb(171,147,255)} 100% {fill: rgb(171,147,255)} }#evfa0emtqr4g10 {animation: evfa0emtqr4g10_f_p 10500ms linear infinite normal forwards}@keyframes evfa0emtqr4g10_f_p { 0% {fill: rgb(171,147,255)} 79.047619% {fill: rgb(171,147,255)} 80% {fill: rgb(255,76,115)} 81.904762% {fill: rgb(171,147,255)} 83.809524% {fill: rgb(171,147,255)} 85.714286% {fill: rgb(255,76,115)} 86.666667% {fill: rgb(171,147,255)} 100% {fill: rgb(171,147,255)} }#evfa0emtqr4g11 {animation: evfa0emtqr4g11_f_p 10500ms linear infinite normal forwards}@keyframes evfa0emtqr4g11_f_p { 0% {fill: rgb(171,147,255)} 13.333333% {fill: rgb(171,147,255)} 17.142857% {fill: rgb(3,211,134)} 19.047619% {fill: rgb(106,189,142)} 35.238095% {fill: rgb(106,189,142)} 39.047619% {fill: rgb(3,211,134)} 40.952381% {fill: rgb(106,189,142)} 60.952381% {fill: rgb(106,189,142)} 64.761905% {fill: rgb(3,211,134)} 66.666667% {fill: rgb(106,189,142)} 91.428571% {fill: rgb(106,189,142)} 97.142857% {fill: rgb(171,147,255)} 100% {fill: rgb(171,147,255)} }#evfa0emtqr4g12 {animation: evfa0emtqr4g12_f_p 10500ms linear infinite normal forwards}@keyframes evfa0emtqr4g12_f_p { 0% {fill: rgb(171,147,255)} 79.047619% {fill: rgb(171,147,255)} 80% {fill: rgb(255,76,115)} 81.904762% {fill: rgb(171,147,255)} 83.809524% {fill: rgb(171,147,255)} 85.714286% {fill: rgb(255,76,115)} 87.619048% {fill: rgb(171,147,255)} 100% {fill: rgb(171,147,255)} }#evfa0emtqr4g13 {animation: evfa0emtqr4g13_f_p 10500ms linear infinite normal forwards}@keyframes evfa0emtqr4g13_f_p { 0% {fill: rgb(171,147,255)} 79.047619% {fill: rgb(171,147,255)} 80% {fill: rgb(255,76,115)} 81.904762% {fill: rgb(171,147,255)} 83.809524% {fill: rgb(171,147,255)} 85.714286% {fill: rgb(255,76,115)} 86.666667% {fill: rgb(171,147,255)} 100% {fill: rgb(171,147,255)} }#evfa0emtqr4g14 {animation: evfa0emtqr4g14_f_p 10500ms linear infinite normal forwards}@keyframes evfa0emtqr4g14_f_p { 0% {fill: rgb(171,147,255)} 13.333333% {fill: rgb(171,147,255)} 18.095238% {fill: rgb(3,211,134)} 20% {fill: rgb(106,189,142)} 33.333333% {fill: rgb(106,189,142)} 38.095238% {fill: rgb(3,211,134)} 40% {fill: rgb(106,189,142)} 60.952381% {fill: rgb(106,189,142)} 65.714286% {fill: rgb(3,211,134)} 67.619048% {fill: rgb(106,189,142)} 91.428571% {fill: rgb(106,189,142)} 97.142857% {fill: rgb(171,147,255)} 100% {fill: rgb(171,147,255)} }#evfa0emtqr4g15 {animation: evfa0emtqr4g15_f_p 10500ms linear infinite normal forwards}@keyframes evfa0emtqr4g15_f_p { 0% {fill: rgb(171,147,255)} 12.380952% {fill: rgb(171,147,255)} 17.142857% {fill: rgb(3,211,134)} 19.047619% {fill: rgb(106,189,142)} 35.238095% {fill: rgb(106,189,142)} 40% {fill: rgb(3,211,134)} 41.904762% {fill: rgb(106,189,142)} 60.952381% {fill: rgb(106,189,142)} 65.714286% {fill: rgb(3,211,134)} 67.619048% {fill: rgb(106,189,142)} 91.428571% {fill: rgb(106,189,142)} 97.142857% {fill: rgb(171,147,255)} 100% {fill: rgb(171,147,255)} }#evfa0emtqr4g16 {animation: evfa0emtqr4g16_f_p 10500ms linear infinite normal forwards}@keyframes evfa0emtqr4g16_f_p { 0% {fill: rgb(171,147,255)} 79.047619% {fill: rgb(171,147,255)} 80% {fill: rgb(255,76,115)} 80.952381% {fill: rgb(171,147,255)} 83.809524% {fill: rgb(171,147,255)} 85.714286% {fill: rgb(255,76,115)} 87.619048% {fill: rgb(171,147,255)} 100% {fill: rgb(171,147,255)} }#evfa0emtqr4g17 {animation: evfa0emtqr4g17_f_p 10500ms linear infinite normal forwards}@keyframes evfa0emtqr4g17_f_p { 0% {fill: rgb(171,147,255)} 14.285714% {fill: rgb(171,147,255)} 18.095238% {fill: rgb(3,211,134)} 20% {fill: rgb(106,189,142)} 34.285714% {fill: rgb(106,189,142)} 38.095238% {fill: rgb(3,211,134)} 41.904762% {fill: rgb(106,189,142)} 60.952381% {fill: rgb(106,189,142)} 64.761905% {fill: rgb(3,211,134)} 68.571429% {fill: rgb(106,189,142)} 91.428571% {fill: rgb(106,189,142)} 97.142857% {fill: rgb(171,147,255)} 100% {fill: rgb(171,147,255)} }</style>
<defs>
<radialGradient id="a" cx=".52031">
<stop stop-color="#6abd8e" offset="0"/>
<stop stop-color="rgba(106,189,142,0)" offset="1"/>
</radialGradient>
</defs>
<path transform="matrix(0 -1 1 0 0 104.07)" d="m52 0c28.719 0 52 23.281 52 51.999 0 28.719-23.281 52.001-52 52.001s-52-23.281-52-52.001c0-28.718 23.281-51.999 52-51.999" fill="url(#a)" fill-opacity=".81" fill-rule="evenodd"/>
<path transform="matrix(-.58778 -.80902 .80902 -.58778 55.882 101.5)" d="m76.039 25.426c-2.528-2.238-4.0995-3.1832-6.7115-4.8762-3.747-2.429-5.4685-5.2348-8.7775-7.7608-2.246-1.715-7.141-1.983-9.514-0.317-2.278 1.599-2.086 4.877-4.638 5.784-2.644 0.94-5.835-0.715-8.512 0.57-2.191 1.051-4.728 4.132-3.31 6.614 1.057 1.849 4.222 3.421 5.641 5.239 5.769 7.391-5.665 7.312-9.003 10.624-5.152 4.872 2.757 13.95 7.714 8.033 12.883-11.552 10.188 15.927 19.764 11.931 9.5768-3.9956 2.5094-9.1303 5.8773-10.808 3.1781-1.5827 11.364 0.14557 12.137-4.802 2.083-13.32 1.6818-18.151-0.66822-20.232z" fill="#b3f1da" fill-rule="evenodd" opacity="0"/>
<path transform="matrix(0 -1 1 0 8.7368 104.31)" d="m81.586 23.684c0.042 2.599 1.755 4.685 1.313 7.518-0.409 2.635-3.309 4.129-5.808 4.5-2.652 0.393-4.96-0.848-7.519-0.943-2.891-0.108-4.507 1.949-7.132 2.774-3.96 1.244-6.853-1.275-10.746-1.84-4.084-0.592-8.252 2.486-8.879 6.466-0.604 3.837-0.051 6.359 3.74 7.517 4.445 1.358 6.055 2.771 8.303 6.78 1.7 3.029 5.114 5.984 8.643 6.56 3.416 0.556 9.25-0.979 11.22 2.887 1.682 3.304-0.212 6.834-3.194 8.346-1.712 0.869-3.928 0.898-5.805 0.867-2.943-0.051-4.394-1.57-6.358-3.645-3.403-3.594-6.847-9.066-11.72-10.64-3.202-1.033-6.515-0.554-9.705-1.442-2.598-0.722-5.138-2.009-7.379-3.5-4.278-2.845-5.895-9.049-5.662-13.978 0.18-3.789 2.479-10.872 5.769-13.117 1.408-0.962 3.257-0.936 4.743-1.778 2.066-1.171 3.223-3.116 4.23-5.167 1.449-2.955 3.138-5.296 6.432-6.382 3.892-1.282 6.288 0.143 8.452 3.44 2.435 3.71 6.855 9.036 11.89 6.479 3.858-1.958 7.568-6.964 12.538-3.908 1.124 0.691 1.951 1.898 3.009 2.769" fill="#b3f1da" fill-rule="evenodd" opacity="0"/>
<path transform="matrix(0 -1 1 0 -25.984 117.43)" d="m45.724 68.37c1.842 0 3.336 1.494 3.336 3.336 0 1.843-1.494 3.337-3.336 3.337-1.843 0-3.337-1.494-3.337-3.337 0-1.842 1.494-3.336 3.337-3.336" fill="#ab93ff" fill-rule="evenodd" opacity=".8"/>
<path transform="matrix(0 -1 1 0 -7.0524 87.23)" d="m40.089 43.805c1.843 0 3.336 1.494 3.336 3.336 0 1.843-1.493 3.337-3.336 3.337s-3.337-1.494-3.337-3.337c0-1.842 1.494-3.336 3.337-3.336" fill="#ab93ff" fill-rule="evenodd" opacity=".66667"/>
<path transform="matrix(0 -1 1 0 22.529 107.13)" d="m64.828 38.963c1.843 0 3.337 1.494 3.337 3.336 0 1.843-1.494 3.337-3.337 3.337s-3.336-1.494-3.336-3.337c0-1.842 1.493-3.336 3.336-3.336z" fill="#ab93ff" fill-rule="evenodd" opacity=".66667"/>
<path transform="matrix(0 -1 1 0 18.192 131.45)" d="m74.82 53.292c1.843 0 3.337 1.494 3.337 3.336 0 1.843-1.494 3.337-3.337 3.337s-3.336-1.494-3.336-3.337c0-1.842 1.493-3.336 3.336-3.336z" fill="#ab93ff" fill-rule="evenodd" opacity=".66667"/>
<path transform="matrix(0 -1 1 0 28.387 71.06)" d="m49.724 18c1.842 0 3.336 1.494 3.336 3.336 0 1.843-1.494 3.337-3.336 3.337-1.843 0-3.337-1.494-3.337-3.337 0-1.842 1.494-3.336 3.337-3.336z" fill="#ab93ff" fill-rule="evenodd" opacity=".8"/>
<path transform="matrix(0 -1 1 0 -25.954 85.596)" d="m29.821 52.438c1.843 0 3.336 1.494 3.336 3.336 0 1.843-1.493 3.337-3.336 3.337s-3.337-1.494-3.337-3.337c0-1.842 1.494-3.336 3.337-3.336" fill="#ab93ff" fill-rule="evenodd" opacity=".66667"/>
<path transform="matrix(0 -1 1 0 14.058 87.389)" d="m50.724 33.329c1.843 0 3.336 1.494 3.336 3.336 0 1.843-1.493 3.337-3.336 3.337s-3.337-1.494-3.337-3.337c0-1.842 1.494-3.336 3.337-3.336z" fill="#ab93ff" fill-rule="evenodd" opacity=".8"/>
<path transform="matrix(0 -1 1 0 -1.3282 52.417)" d="m25.544 23.536c1.843 0 3.337 1.494 3.337 3.336 0 1.843-1.494 3.337-3.337 3.337-1.842 0-3.336-1.494-3.336-3.337 0-1.842 1.494-3.336 3.336-3.336z" fill="#ab93ff" fill-rule="evenodd" opacity=".8"/>
<path transform="matrix(0 -1 1 0 43.216 113.69)" d="m78.455 31.902c1.843 0 3.336 1.494 3.336 3.336 0 1.843-1.493 3.337-3.336 3.337s-3.337-1.494-3.337-3.337c0-1.842 1.494-3.336 3.337-3.336" fill="#ab93ff" fill-rule="evenodd" opacity=".8"/>
<path transform="matrix(0 -1 1 0 7.8504 67.06)" d="m37.455 26.268c1.843 0 3.337 1.494 3.337 3.336 0 1.843-1.494 3.337-3.337 3.337s-3.337-1.494-3.337-3.337c0-1.842 1.494-3.336 3.337-3.336" fill="#ab93ff" fill-rule="evenodd" opacity=".8"/>
<path transform="matrix(0 -1 1 0 -4.0518 106.77)" d="m51.356 52.072c1.843 0 3.337 1.494 3.337 3.336 0 1.843-1.494 3.337-3.337 3.337s-3.336-1.494-3.336-3.337c0-1.842 1.493-3.336 3.336-3.336z" fill="#ab93ff" fill-rule="evenodd" opacity=".8"/>
<path transform="matrix(0 -1 1 0 -.1735 124.35)" d="m62.088 58.926c1.843 0 3.337 1.494 3.337 3.336 0 1.843-1.494 3.337-3.337 3.337s-3.336-1.494-3.336-3.337c0-1.842 1.493-3.336 3.336-3.336" fill="#ab93ff" fill-rule="evenodd" opacity=".8"/>
<path transform="matrix(0 -1 1 0 38.858 90.799)" d="m64.828 22.634c1.843 0 3.337 1.494 3.337 3.336 0 1.843-1.494 3.337-3.337 3.337s-3.336-1.494-3.336-3.337c0-1.842 1.493-3.336 3.336-3.336z" fill="#ab93ff" fill-rule="evenodd" opacity=".8"/>
</svg>
